<svg width="150" height="61" viewBox="0 0 150 61" fill="none" xmlns="http://www.w3.org/2000/svg">
<path d="M69.508 41.3672V18.7752H73.092L81.988 32.6312H80.164L89.028 18.7752H92.644V41.3672H87.62V27.2552L88.516 27.4792L82.724 36.5032H79.396L73.636 27.4792L74.5 27.2552V41.3672H69.508ZM104.209 41.7192C102.523 41.7192 101.019 41.3779 99.6968 40.6952C98.3954 39.9912 97.3714 39.0205 96.6248 37.7832C95.8781 36.5459 95.5048 35.1485 95.5048 33.5912C95.5048 32.0339 95.8674 30.6472 96.5928 29.4312C97.3394 28.1939 98.3421 27.2232 99.6008 26.5192C100.859 25.8152 102.278 25.4632 103.857 25.4632C105.393 25.4632 106.747 25.7939 107.921 26.4552C109.094 27.1165 110.011 28.0339 110.673 29.2072C111.355 30.3805 111.697 31.7245 111.697 33.2392C111.697 33.5165 111.675 33.8152 111.633 34.1352C111.611 34.4339 111.558 34.7859 111.473 35.1912L98.0648 35.2232V31.8632L109.393 31.8312L107.281 33.2392C107.259 32.3432 107.121 31.6072 106.865 31.0312C106.609 30.4339 106.225 29.9859 105.713 29.6872C105.222 29.3672 104.614 29.2072 103.889 29.2072C103.121 29.2072 102.449 29.3885 101.873 29.7512C101.318 30.0925 100.881 30.5832 100.561 31.2232C100.262 31.8632 100.113 32.6419 100.113 33.5592C100.113 34.4765 100.273 35.2659 100.593 35.9272C100.934 36.5672 101.403 37.0685 102.001 37.4312C102.619 37.7725 103.345 37.9432 104.177 37.9432C104.945 37.9432 105.638 37.8152 106.257 37.5592C106.875 37.2819 107.419 36.8765 107.889 36.3432L110.577 39.0312C109.809 39.9272 108.881 40.5992 107.793 41.0472C106.705 41.4952 105.51 41.7192 104.209 41.7192ZM124.332 41.3672V32.5032C124.332 31.6925 124.076 31.0419 123.564 30.5512C123.073 30.0392 122.444 29.7832 121.676 29.7832C121.143 29.7832 120.673 29.9005 120.268 30.1352C119.863 30.3485 119.543 30.6685 119.308 31.0952C119.073 31.5005 118.956 31.9699 118.956 32.5032L117.068 31.5752C117.068 30.3592 117.335 29.2925 117.868 28.3752C118.401 27.4579 119.137 26.7539 120.076 26.2632C121.036 25.7512 122.113 25.4952 123.308 25.4952C124.46 25.4952 125.473 25.7725 126.348 26.3272C127.244 26.8605 127.948 27.5752 128.46 28.4712C128.972 29.3672 129.228 30.3485 129.228 31.4152V41.3672H124.332ZM114.06 41.3672V25.8152H118.956V41.3672H114.06ZM139.861 41.7192C138.261 41.7192 136.81 41.3672 135.509 40.6632C134.229 39.9379 133.215 38.9565 132.469 37.7192C131.722 36.4819 131.349 35.0952 131.349 33.5592C131.349 32.0232 131.722 30.6472 132.469 29.4312C133.215 28.2152 134.229 27.2552 135.509 26.5512C136.789 25.8259 138.239 25.4632 139.861 25.4632C141.482 25.4632 142.933 25.8152 144.213 26.5192C145.493 27.2232 146.506 28.1939 147.253 29.4312C147.999 30.6472 148.373 32.0232 148.373 33.5592C148.373 35.0952 147.999 36.4819 147.253 37.7192C146.506 38.9565 145.493 39.9379 144.213 40.6632C142.933 41.3672 141.482 41.7192 139.861 41.7192ZM139.861 37.2712C140.565 37.2712 141.183 37.1219 141.717 36.8232C142.25 36.5032 142.655 36.0659 142.933 35.5112C143.231 34.9352 143.381 34.2845 143.381 33.5592C143.381 32.8339 143.231 32.2045 142.933 31.6712C142.634 31.1165 142.218 30.6899 141.685 30.3912C141.173 30.0712 140.565 29.9112 139.861 29.9112C139.178 29.9112 138.57 30.0712 138.037 30.3912C137.503 30.6899 137.087 31.1165 136.789 31.6712C136.49 32.2259 136.341 32.8659 136.341 33.5912C136.341 34.2952 136.49 34.9352 136.789 35.5112C137.087 36.0659 137.503 36.5032 138.037 36.8232C138.57 37.1219 139.178 37.2712 139.861 37.2712Z" fill="white"/>
<path d="M9.71313 33.1312C6.82755 30.079 7.27586 25.1581 10.709 22.6854L32.1908 7.21328L32.5091 6.99707C35.8337 4.86529 40.3098 5.92274 42.3082 9.38891L49.0614 21.1021C50.8024 24.1219 50.0407 27.945 47.323 30.0733L47.0543 30.2736L28.3351 43.5494C25.5618 45.5161 21.7742 45.196 19.3701 42.792L9.85326 33.2751L9.71313 33.1312ZM20.8494 41.3127C22.5324 42.9955 25.1836 43.2191 27.1249 41.8424L45.8437 28.567C47.8981 27.11 48.5068 24.329 47.2488 22.147L40.4956 10.4339C39.0517 7.9293 35.7593 7.22115 33.4135 8.91074L11.9316 24.3829C9.49028 26.1412 9.20522 29.6683 11.3326 31.7958L20.8494 41.3127Z" fill="white"/>
<path d="M9.23665 32.5696C6.8937 29.5043 7.48241 25.0126 10.7116 22.6867L32.1935 7.21392L32.5118 6.99779C35.8363 4.86626 40.3121 5.92384 42.3105 9.38979L49.0639 21.1026C49.3594 21.6152 49.5805 22.1517 49.7344 22.6985C49.6152 22.8553 49.5609 23.0829 49.606 23.4069C49.6197 23.5057 49.6259 23.6107 49.6287 23.7211L46.1567 20.2491L40.4978 10.4346C39.0538 7.93035 35.7621 7.22261 33.4164 8.91195L11.9339 24.3841C9.68111 26.0068 9.26603 29.1346 10.887 31.2797L10.0563 31.877C9.76038 32.0902 9.488 32.3229 9.23665 32.5696ZM11.3352 31.7969C11.171 31.6328 11.0226 31.4591 10.887 31.2797L32.9883 15.3602L33.2514 15.1799C35.9113 13.4413 39.4179 13.7247 41.7643 15.8677L41.9949 16.0873L46.1567 20.2491L47.2512 22.1474C47.7565 23.0239 47.9604 23.9976 47.8907 24.9427L40.5151 17.5671C38.8226 15.875 36.1532 15.6596 34.2112 17.0582L12.3454 32.8072L11.3352 31.7969ZM9.20075 42.4664C6.41976 39.6851 6.5261 35.231 9.23665 32.5696C9.38454 32.7631 9.54387 32.9512 9.71519 33.1324L9.85606 33.2761L10.6723 34.0923C10.8573 33.9071 11.0596 33.733 11.2799 33.5744L12.3454 32.8072L20.8521 41.3139C22.535 42.9964 25.1858 43.22 27.127 41.8435L45.8467 28.568C47.0757 27.6962 47.7867 26.3504 47.8907 24.9427L49.1985 26.2506C48.8314 27.5363 48.3234 28.7993 48.075 29.3932C47.8447 29.6351 47.5946 29.863 47.3251 30.074L47.0565 30.275L28.3375 43.5498C25.5643 45.5164 21.7772 45.1968 19.373 42.793L10.6723 34.0923C8.80724 35.9588 8.74468 39.0517 10.6799 40.9872L20.4226 50.73C22.1118 52.4191 24.7756 52.6377 26.7175 51.2465L49.6985 34.7787C51.4854 33.4982 52.1214 31.272 51.5084 29.3338C51.483 29.2764 51.4637 29.2172 51.449 29.157C51.4459 29.1485 51.4431 29.1399 51.44 29.1315L51.4428 29.1315C51.3687 28.7917 51.4625 28.4227 51.7266 28.1585C52.1393 27.7458 52.8088 27.7453 53.2216 28.1578C53.3927 28.3289 53.4914 28.5448 53.5206 28.7676L53.5261 28.7662C54.3484 31.4601 53.4887 34.5292 51.0796 36.36L50.9173 36.4794L27.937 52.9466C25.1628 54.9345 21.3568 54.6224 18.9435 52.2091L9.20075 42.4664Z" fill="white"/>
</svg>
