<svg width="385" height="61" viewBox="0 0 385 61" fill="none" xmlns="http://www.w3.org/2000/svg">
<path d="M153.625 41.3672V18.7752H157.209L166.105 32.6312H164.281L173.145 18.7752H176.761V41.3672H171.737V27.2552L172.633 27.4792L166.841 36.5032H163.513L157.753 27.4792L158.617 27.2552V41.3672H153.625ZM188.326 41.7192C186.641 41.7192 185.137 41.3779 183.814 40.6952C182.513 39.9912 181.489 39.0205 180.742 37.7832C179.995 36.5459 179.622 35.1485 179.622 33.5912C179.622 32.0339 179.985 30.6472 180.71 29.4312C181.457 28.1939 182.459 27.2232 183.718 26.5192C184.977 25.8152 186.395 25.4632 187.974 25.4632C189.51 25.4632 190.865 25.7939 192.038 26.4552C193.211 27.1165 194.129 28.0339 194.79 29.2072C195.473 30.3805 195.814 31.7245 195.814 33.2392C195.814 33.5165 195.793 33.8152 195.75 34.1352C195.729 34.4339 195.675 34.7859 195.59 35.1912L182.182 35.2232V31.8632L193.51 31.8312L191.398 33.2392C191.377 32.3432 191.238 31.6072 190.982 31.0312C190.726 30.4339 190.342 29.9859 189.83 29.6872C189.339 29.3672 188.731 29.2072 188.006 29.2072C187.238 29.2072 186.566 29.3885 185.99 29.7512C185.435 30.0925 184.998 30.5832 184.678 31.2232C184.379 31.8632 184.23 32.6419 184.23 33.5592C184.23 34.4765 184.39 35.2659 184.71 35.9272C185.051 36.5672 185.521 37.0685 186.118 37.4312C186.737 37.7725 187.462 37.9432 188.294 37.9432C189.062 37.9432 189.755 37.8152 190.374 37.5592C190.993 37.2819 191.537 36.8765 192.006 36.3432L194.694 39.0312C193.926 39.9272 192.998 40.5992 191.91 41.0472C190.822 41.4952 189.627 41.7192 188.326 41.7192ZM208.449 41.3672V32.5032C208.449 31.6925 208.193 31.0419 207.681 30.5512C207.191 30.0392 206.561 29.7832 205.793 29.7832C205.26 29.7832 204.791 29.9005 204.385 30.1352C203.98 30.3485 203.66 30.6685 203.425 31.0952C203.191 31.5005 203.073 31.9699 203.073 32.5032L201.185 31.5752C201.185 30.3592 201.452 29.2925 201.985 28.3752C202.519 27.4579 203.255 26.7539 204.193 26.2632C205.153 25.7512 206.231 25.4952 207.425 25.4952C208.577 25.4952 209.591 25.7725 210.465 26.3272C211.361 26.8605 212.065 27.5752 212.577 28.4712C213.089 29.3672 213.345 30.3485 213.345 31.4152V41.3672H208.449ZM198.177 41.3672V25.8152H203.073V41.3672H198.177ZM223.978 41.7192C222.378 41.7192 220.927 41.3672 219.626 40.6632C218.346 39.9379 217.332 38.9565 216.586 37.7192C215.839 36.4819 215.466 35.0952 215.466 33.5592C215.466 32.0232 215.839 30.6472 216.586 29.4312C217.332 28.2152 218.346 27.2552 219.626 26.5512C220.906 25.8259 222.356 25.4632 223.978 25.4632C225.599 25.4632 227.05 25.8152 228.33 26.5192C229.61 27.2232 230.623 28.1939 231.37 29.4312C232.116 30.6472 232.49 32.0232 232.49 33.5592C232.49 35.0952 232.116 36.4819 231.37 37.7192C230.623 38.9565 229.61 39.9379 228.33 40.6632C227.05 41.3672 225.599 41.7192 223.978 41.7192ZM223.978 37.2712C224.682 37.2712 225.3 37.1219 225.834 36.8232C226.367 36.5032 226.772 36.0659 227.05 35.5112C227.348 34.9352 227.498 34.2845 227.498 33.5592C227.498 32.8339 227.348 32.2045 227.05 31.6712C226.751 31.1165 226.335 30.6899 225.802 30.3912C225.29 30.0712 224.682 29.9112 223.978 29.9112C223.295 29.9112 222.687 30.0712 222.154 30.3912C221.62 30.6899 221.204 31.1165 220.906 31.6712C220.607 32.2259 220.458 32.8659 220.458 33.5912C220.458 34.2952 220.607 34.9352 220.906 35.5112C221.204 36.0659 221.62 36.5032 222.154 36.8232C222.687 37.1219 223.295 37.2712 223.978 37.2712Z" fill="white"/>
<path d="M96.9475 33.1312C94.0619 30.079 94.5102 25.1581 97.9433 22.6854L119.425 7.21328L119.744 6.99707C123.068 4.86529 127.544 5.92274 129.543 9.38891L136.296 21.1021C138.037 24.1219 137.275 27.945 134.557 30.0733L134.289 30.2736L115.569 43.5494C112.796 45.5161 109.009 45.196 106.604 42.792L97.0876 33.2751L96.9475 33.1312ZM108.084 41.3127C109.767 42.9955 112.418 43.2191 114.359 41.8424L133.078 28.567C135.132 27.11 135.741 24.329 134.483 22.147L127.73 10.4339C126.286 7.9293 122.994 7.22115 120.648 8.91074L99.166 24.3829C96.7247 26.1412 96.4396 29.6683 98.567 31.7958L108.084 41.3127Z" fill="white"/>
<path d="M96.471 32.5696C94.1281 29.5043 94.7168 25.0126 97.946 22.6867L119.428 7.21392L119.746 6.99779C123.071 4.86626 127.547 5.92384 129.545 9.38979L136.298 21.1026C136.594 21.6152 136.815 22.1517 136.969 22.6985C136.85 22.8553 136.795 23.0829 136.84 23.4069C136.854 23.5057 136.86 23.6107 136.863 23.7211L133.391 20.2491L127.732 10.4346C126.288 7.93035 122.997 7.22261 120.651 8.91195L99.1683 24.3841C96.9155 26.0068 96.5004 29.1346 98.1214 31.2797L97.2907 31.877C96.9948 32.0902 96.7224 32.3229 96.471 32.5696ZM98.5696 31.7969C98.4054 31.6328 98.2569 31.4591 98.1214 31.2797L120.223 15.3602L120.486 15.1799C123.146 13.4413 126.652 13.7247 128.999 15.8677L129.229 16.0873L133.391 20.2491L134.486 22.1474C134.991 23.0239 135.195 23.9976 135.125 24.9427L127.749 17.5671C126.057 15.875 123.388 15.6596 121.446 17.0582L99.5798 32.8072L98.5696 31.7969ZM96.4351 42.4664C93.6541 39.6851 93.7605 35.231 96.471 32.5696C96.6189 32.7631 96.7782 32.9512 96.9496 33.1324L97.0904 33.2761L97.9066 34.0923C98.0917 33.9071 98.294 33.733 98.5143 33.5744L99.5798 32.8072L108.086 41.3139C109.769 42.9964 112.42 43.22 114.361 41.8435L133.081 28.568C134.31 27.6962 135.021 26.3504 135.125 24.9427L136.433 26.2506C136.066 27.5363 135.558 28.7993 135.309 29.3932C135.079 29.6351 134.829 29.863 134.559 30.074L134.291 30.275L115.572 43.5498C112.799 45.5164 109.012 45.1968 106.607 42.793L97.9066 34.0923C96.0416 35.9588 95.9791 39.0517 97.9142 40.9872L107.657 50.73C109.346 52.4191 112.01 52.6377 113.952 51.2465L136.933 34.7787C138.72 33.4982 139.356 31.272 138.743 29.3338C138.717 29.2764 138.698 29.2172 138.683 29.157C138.68 29.1485 138.677 29.1399 138.674 29.1315L138.677 29.1315C138.603 28.7917 138.697 28.4227 138.961 28.1585C139.374 27.7458 140.043 27.7453 140.456 28.1578C140.627 28.3289 140.726 28.5448 140.755 28.7676L140.76 28.7662C141.583 31.4601 140.723 34.5292 138.314 36.36L138.152 36.4794L115.171 52.9466C112.397 54.9345 108.591 54.6224 106.178 52.2091L96.4351 42.4664Z" fill="white"/>
</svg>
